PathFileType	4	(X/Y/Z)	C:/Users/opensim2020/Desktop/walking_exp_matlab/subject01_walking08_straight_04.trc	
DataRate	CameraRate	NumFrames	NumMarkers	Units	OrigDataRate	OrigDataStartFrame	OrigNumFrames	
100.00	100.00	7	43	mm	100.00	3755	256	
Frame#	Time	LFHD			RFHD			LBHD			RBHD			C7			T10			CLAV			STRN			RBAK			LSHO			LUPA			LELB			LFRM			LWRA			LWRB			LFIN			RSHO			RUPA			RELB			RFRM			RWRA			RWRB			RFIN			LASI			RASI			LPSI			RPSI			LTHI			LKNE			LTIB			LANK			LHEE			LTOE			RTHI			RKNE			RTIB			RANK			RHEE			RTOE			*39			*40			*41			*42			
		X1	Y1	Z1	X2	Y2	Z2	X3	Y3	Z3	X4	Y4	Z4	X5	Y5	Z5	X6	Y6	Z6	X7	Y7	Z7	X8	Y8	Z8	X9	Y9	Z9	X10	Y10	Z10	X11	Y11	Z11	X12	Y12	Z12	X13	Y13	Z13	X14	Y14	Z14	X15	Y15	Z15	X16	Y16	Z16	X17	Y17	Z17	X18	Y18	Z18	X19	Y19	Z19	X20	Y20	Z20	X21	Y21	Z21	X22	Y22	Z22	X23	Y23	Z23	X24	Y24	Z24	X25	Y25	Z25	X26	Y26	Z26	X27	Y27	Z27	X28	Y28	Z28	X29	Y29	Z29	X30	Y30	Z30	X31	Y31	Z31	X32	Y32	Z32	X33	Y33	Z33	X34	Y34	Z34	X35	Y35	Z35	X36	Y36	Z36	X37	Y37	Z37	X38	Y38	Z38	X39	Y39	Z39	X40	Y40	Z40	X41	Y41	Z41	X42	Y42	Z42	X43	Y43	Z43	

97	0.960	1512.87988	389.70087	1670.19128	1401.00842	369.62579	1675.38025	1498.45569	508.34265	1633.14673	1378.93628	490.38287	1637.74548	1452.16479	552.84363	1434.50513	1436.46484	584.40881	1140.34180	1456.57178	409.74481	1367.76099	1461.89612	363.52780	1214.30310	1368.16028	600.52197	1238.52710	1616.08105	474.61807	1396.64075	1695.29407	513.32935	1212.13672	1691.37634	535.34119	1061.61133	1717.94580	498.69171	953.72321	1705.02039	416.33313	840.46509	1724.12939	473.51199	834.06659	1736.00293	425.08914	764.82629	1303.00916	467.10535	1396.92493	1196.03833	507.60864	1194.72571	1190.75659	495.72171	1069.49670	1161.09106	449.30914	958.04089	1183.76550	351.60489	856.03967	1142.17444	393.02487	850.47437	1145.47461	343.13278	780.76587	1548.99866	411.47418	936.91602	1331.72595	400.68021	939.54425	1490.69141	594.40918	941.93854	1346.22583	586.35925	947.96075	1616.76978	362.54007	618.83051	1606.81897	344.29962	486.56531	1609.47876	469.14618	349.80109	1557.96887	596.38593	172.79494	1497.03931	642.38690	163.08876	1579.85669	497.72516	69.45731	1287.01599	450.40906	603.11163	1319.61230	443.48846	445.28583	1318.90210	499.11768	277.17493	1375.17200	531.58234	75.80786	1425.11316	583.00598	39.55426	1377.01514	391.36386	36.87975	1422.94946	380.65750	1709.53027	-3101.80835	1973.20996	1023.56506	-3140.60596	2012.51160	1022.03925			 
98	0.970	1512.82861	381.90915	1670.00562	1400.93909	361.82712	1675.25977	1498.32178	500.65469	1633.25110	1378.80554	482.58298	1637.92371	1451.87988	545.57404	1434.66211	1435.82629	577.45917	1140.50488	1456.38281	402.56796	1367.73035	1461.59595	356.57645	1214.22229	1367.57092	593.44958	1238.83997	1615.85925	467.53653	1396.60229	1694.82922	507.08823	1212.11182	1690.51807	529.77936	1061.78052	1716.82629	494.34644	953.56946	1703.43005	413.44406	839.20087	1722.76794	470.60059	833.52893	1734.28491	423.08636	763.60626	1302.72498	459.86588	1397.16418	1195.40356	500.30371	1195.04675	1189.63208	488.21994	1069.92188	1160.25073	440.33121	958.67169	1183.31274	341.33731	858.16943	1141.60864	382.50775	851.88226	1145.10461	331.83786	782.93585	1548.51123	404.96829	937.13391	1331.35071	394.38037	938.99457	1490.67151	587.92651	942.27759	1346.22803	580.15137	948.12665	1616.63867	353.17087	620.42859	1606.00598	333.37689	488.19934	1608.95337	453.88382	346.86389	1557.38379	574.45984	165.26483	1496.35266	619.87762	153.09093	1580.96875	471.26877	67.28176	1287.14563	446.81918	602.80585	1319.67029	441.37677	444.88657	1318.88721	498.06827	277.01587	1375.27795	531.41937	75.86607	1425.14417	582.96002	39.69051	1377.14160	391.69461	36.48590	1422.94104	372.84409	1709.33887	-3101.79224	1973.23621	1023.41290	-3140.65796	2012.42407	1021.96710			 
99	0.980	1512.82581	374.14243	1669.84851	1400.97388	354.09616	1675.11731	1498.28369	492.94235	1633.32312	1378.73987	474.87704	1638.00073	1451.60693	538.21844	1434.76758	1435.30615	570.51178	1140.68970	1456.14868	395.32114	1367.57397	1461.24976	349.73636	1213.91003	1367.01025	586.32330	1239.12256	1615.66260	460.45166	1396.52295	1694.39612	500.86145	1212.08704	1689.66846	524.14746	1061.91199	1715.78992	489.84256	953.38184	1701.93262	410.39725	837.98193	1721.88330	467.74548	833.20038	1732.66309	420.82458	762.41833	1302.51160	452.42053	1397.16650	1194.77478	493.01187	1195.39478	1188.86133	480.73221	1070.07788	1159.58667	431.50641	959.37903	1183.01733	331.08499	860.05591	1141.49536	371.78378	853.40973	1144.85681	320.51279	785.02545	1548.18225	398.53122	937.35168	1331.07996	388.10944	938.30530	1490.69995	581.45709	942.62958	1346.16504	573.84741	948.25580	1616.59521	343.53302	622.04840	1605.30359	322.88489	489.86301	1608.52136	438.57159	343.69391	1556.96008	552.04211	157.54123	1496.11316	596.86755	143.09869	1581.99512	444.40216	65.15542	1287.18262	443.20944	602.40277	1319.61707	439.28400	444.41806	1318.96423	496.97156	276.93912	1375.35376	531.33673	75.91791	1425.18738	582.93939	39.91823	1377.12927	391.64258	36.46231	1422.99487	365.00031	1709.22888	-3101.79248	1973.07629	1023.52911	-3140.65039	2012.59253	1022.00012			 
100	0.990	1512.91223	366.47470	1669.70618	1401.06848	346.28561	1675.06677	1498.31226	485.30685	1633.36072	1378.75342	467.13220	1638.08032	1451.47729	530.82977	1434.91724	1434.77734	563.51599	1140.86377	1456.01904	388.10934	1367.42407	1461.00317	343.48218	1213.43274	1366.51636	579.24377	1239.39636	1615.55383	453.32312	1396.41394	1693.69360	494.54626	1211.81323	1688.93628	518.51556	1062.01770	1714.80103	485.24988	953.14587	1700.54041	407.19830	836.86310	1720.70300	464.45444	832.70679	1731.17126	418.44421	761.36151	1302.48474	444.99203	1397.27075	1194.27783	485.41177	1195.67029	1187.85388	473.24033	1070.29309	1158.86914	422.57956	959.96442	1182.68433	321.03223	862.25079	1140.98901	361.90979	854.69678	1144.75293	309.29282	787.23236	1547.90601	392.08896	937.50958	1330.78088	381.39963	937.83453	1490.75793	574.96478	943.00769	1346.25171	567.57690	948.49738	1616.51245	334.45770	623.78577	1604.57654	312.78595	491.24698	1608.36267	423.11005	340.37061	1556.78259	528.98145	149.73543	1495.79370	573.02155	133.00130	1583.21460	417.33829	63.13871	1287.30725	439.55112	601.97333	1319.50793	437.04773	443.89612	1318.91577	495.83313	276.94141	1375.32214	531.13721	75.91350	1424.93738	582.10565	40.03090	1377.06946	391.86414	36.20265	1423.00537	357.13370	1709.11890	-3101.80688	1973.21436	1023.54254	-3140.72192	2012.57336	1021.97522			 
101	1.000	1512.97266	358.75626	1669.48999	1401.20862	338.55746	1674.85034	1498.36023	477.66052	1633.31665	1378.86487	459.47314	1638.07861	1451.28345	523.43976	1434.94958	1434.32275	556.52527	1141.02258	1456.12122	380.77548	1367.45605	1460.90784	336.47922	1213.08362	1366.12317	572.06409	1239.59448	1615.47168	446.18967	1396.23804	1693.33960	488.15182	1211.65100	1688.28687	512.76001	1062.07813	1713.90369	480.54437	952.90326	1699.09277	403.80411	835.70880	1719.51965	460.99814	832.15631	1729.65698	415.72391	760.23920	1302.39807	437.62122	1397.40771	1193.72290	478.14301	1195.97412	1187.16895	465.83569	1070.50378	1158.30981	413.88705	960.66443	1182.38110	311.03821	864.41803	1140.78894	351.91031	856.22729	1144.69678	298.06317	789.30670	1547.70605	385.18997	938.04620	1330.61572	375.39557	937.04205	1490.81531	568.45721	943.40198	1346.35010	561.22162	948.74835	1616.59912	325.92001	624.93768	1604.07959	302.98621	492.59082	1608.51111	407.51822	337.08142	1556.86694	505.53464	142.07133	1495.71558	548.64240	123.01028	1584.15369	389.82794	61.46491	1287.37170	435.81750	601.53558	1319.59021	434.78900	443.57831	1318.85376	494.75595	276.90100	1375.39709	530.97882	75.97544	1424.96106	582.06439	40.25895	1377.13977	391.85364	36.20068	1423.15039	349.52576	1708.94568	-3101.88013	1973.17798	1023.44629	-3140.65674	2012.57227	1022.01031			 
102	1.010	1513.21338	351.09192	1669.28748	1401.41541	330.88397	1674.65601	1498.42041	470.03271	1633.21765	1378.95239	451.72162	1638.02161	1451.14648	515.94995	1435.00061	1433.97583	549.47980	1141.13440	1456.04822	373.43228	1367.11536	1460.81384	329.47031	1212.85547	1365.76025	564.86206	1239.75916	1615.47571	439.10614	1396.01733	1693.20056	481.70917	1211.51697	1687.64661	506.89194	1062.03577	1713.06128	475.76251	952.58368	1697.81116	400.23138	834.54785	1718.48999	457.37534	831.64044	1728.29688	412.85217	759.16846	1302.32031	430.01874	1397.26904	1193.23071	470.80115	1196.21460	1186.22314	458.44351	1070.65991	1157.79578	405.18759	961.22034	1182.52283	301.37595	866.04889	1140.79456	341.40338	857.58038	1144.73047	287.29709	791.45294	1547.63391	378.59454	938.12933	1330.53088	369.11603	936.25781	1490.94580	561.88324	943.78278	1346.36157	554.81781	948.91931	1616.75342	317.85141	626.00183	1603.62158	293.61221	493.75433	1608.85107	391.83398	333.75577	1557.12524	481.59396	134.49507	1495.86389	523.64661	113.08138	1585.03516	362.28619	59.76907	1287.67810	431.77411	601.16528	1319.81812	432.70862	443.22623	1319.06921	493.41443	277.24875	1375.25671	530.90485	76.09378	1425.02563	581.99603	40.54345	1377.11060	391.74576	36.10765	1423.39661	341.60818	1708.79858	-3101.82666	1973.07153	1023.61945	-3140.66772	2012.53943	1021.97522			 
103	1.020	1513.49377	343.47498	1669.07336	1401.67896	323.15631	1674.45911	1498.67969	462.42508	1633.09521	1379.20142	444.09082	1637.91809	1451.04065	508.50571	1434.91455	1433.71741	542.44537	1141.20667	1456.16248	366.11752	1366.90112	1460.82947	322.41119	1212.44128	1365.50891	557.58691	1239.85156	1615.44714	431.91663	1395.71582	1692.82141	475.24564	1211.19128	1687.08447	501.05753	1061.97778	1712.34521	470.81152	952.20062	1696.71008	396.49924	833.47247	1717.59875	453.62473	831.09473	1727.21851	409.93054	758.28143	1302.38464	422.37003	1397.24329	1192.95398	463.22989	1196.50623	1185.53113	451.02924	1070.78040	1157.41809	396.60910	961.80164	1182.37122	291.55560	868.25378	1140.88501	331.45706	858.85541	1144.85181	276.54608	793.55841	1547.56592	371.96802	938.13916	1330.50659	362.79529	935.57819	1491.06763	555.29730	944.10852	1346.55188	548.50861	949.05573	1616.93298	309.96567	626.68292	1603.26672	284.61475	494.70596	1609.17969	376.41229	330.79172	1557.91223	457.55060	127.48610	1496.50854	498.49359	103.67165	1585.84436	334.36850	58.57943	1287.93567	427.88419	600.85986	1319.94836	430.04361	442.77072	1319.04932	491.76163	276.98679	1375.28381	530.61853	76.25364	1425.06104	581.93457	40.87355	1377.13538	391.63068	36.08898	1423.71033	334.01706	1708.57727	-3101.72583	1973.26379	1023.37927	-3140.73779	2012.50305	1021.95789			 
